<svg width="262" height="19" viewBox="0 0 262 19" fill="none" xmlns="http://www.w3.org/2000/svg">
<path d="M1.28 18C1.104 18 0.96 17.944 0.848 17.832C0.736 17.72 0.68 17.576 0.68 17.4V1.8C0.68 1.624 0.736 1.48 0.848 1.368C0.96 1.256 1.104 1.2 1.28 1.2H3.824C4.096 1.2 4.288 1.264 4.4 1.392C4.528 1.504 4.608 1.592 4.64 1.656L10.496 10.896V1.8C10.496 1.624 10.552 1.48 10.664 1.368C10.776 1.256 10.92 1.2 11.096 1.2H13.976C14.152 1.2 14.296 1.256 14.408 1.368C14.52 1.48 14.576 1.624 14.576 1.8V17.4C14.576 17.56 14.52 17.704 14.408 17.832C14.296 17.944 14.152 18 13.976 18H11.408C11.152 18 10.96 17.936 10.832 17.808C10.72 17.68 10.648 17.592 10.616 17.544L4.76 8.664V17.4C4.76 17.576 4.704 17.72 4.592 17.832C4.48 17.944 4.336 18 4.16 18H1.28ZM16.97 18C16.842 18 16.722 17.952 16.61 17.856C16.514 17.744 16.466 17.624 16.466 17.496C16.466 17.416 16.474 17.344 16.49 17.28L22.13 1.872C22.178 1.696 22.274 1.544 22.418 1.416C22.578 1.272 22.794 1.2 23.066 1.2H26.618C26.89 1.2 27.098 1.272 27.242 1.416C27.402 1.544 27.506 1.696 27.554 1.872L33.17 17.28C33.202 17.344 33.218 17.416 33.218 17.496C33.218 17.624 33.162 17.744 33.05 17.856C32.954 17.952 32.834 18 32.69 18H29.738C29.498 18 29.314 17.944 29.186 17.832C29.074 17.704 29.002 17.592 28.97 17.496L28.034 15.048H21.626L20.714 17.496C20.682 17.592 20.61 17.704 20.498 17.832C20.386 17.944 20.194 18 19.922 18H16.97ZM22.61 11.592H27.074L24.818 5.256L22.61 11.592ZM35.7097 18C35.5497 18 35.4057 17.944 35.2777 17.832C35.1657 17.72 35.1097 17.576 35.1097 17.4V1.8C35.1097 1.624 35.1657 1.48 35.2777 1.368C35.4057 1.256 35.5497 1.2 35.7097 1.2H38.3017C38.5577 1.2 38.7497 1.272 38.8777 1.416C39.0217 1.544 39.1097 1.648 39.1417 1.728L43.3657 9.312L47.5897 1.728C47.6377 1.648 47.7177 1.544 47.8297 1.416C47.9577 1.272 48.1577 1.2 48.4297 1.2H50.9977C51.1737 1.2 51.3177 1.256 51.4297 1.368C51.5577 1.48 51.6217 1.624 51.6217 1.8V17.4C51.6217 17.576 51.5577 17.72 51.4297 17.832C51.3177 17.944 51.1737 18 50.9977 18H48.1417C47.9657 18 47.8137 17.944 47.6857 17.832C47.5737 17.72 47.5177 17.576 47.5177 17.4V8.4L44.8057 13.416C44.7417 13.56 44.6457 13.688 44.5177 13.8C44.3897 13.912 44.2137 13.968 43.9897 13.968H42.7417C42.5177 13.968 42.3417 13.912 42.2137 13.8C42.0857 13.688 41.9817 13.56 41.9017 13.416L39.1897 8.4V17.4C39.1897 17.576 39.1337 17.72 39.0217 17.832C38.9097 17.944 38.7657 18 38.5897 18H35.7097ZM54.0013 18C53.8733 18 53.7533 17.952 53.6413 17.856C53.5453 17.744 53.4973 17.624 53.4973 17.496C53.4973 17.416 53.5053 17.344 53.5213 17.28L59.1613 1.872C59.2093 1.696 59.3053 1.544 59.4492 1.416C59.6093 1.272 59.8253 1.2 60.0973 1.2H63.6493C63.9213 1.2 64.1293 1.272 64.2733 1.416C64.4333 1.544 64.5373 1.696 64.5853 1.872L70.2013 17.28C70.2333 17.344 70.2493 17.416 70.2493 17.496C70.2493 17.624 70.1933 17.744 70.0813 17.856C69.9853 17.952 69.8653 18 69.7213 18H66.7693C66.5293 18 66.3453 17.944 66.2173 17.832C66.1053 17.704 66.0333 17.592 66.0013 17.496L65.0653 15.048H58.6573L57.7453 17.496C57.7133 17.592 57.6413 17.704 57.5293 17.832C57.4173 17.944 57.2253 18 56.9533 18H54.0013ZM59.6413 11.592H64.1053L61.8493 5.256L59.6413 11.592ZM72.7409 18C72.5649 18 72.4209 17.944 72.3089 17.832C72.1969 17.72 72.1409 17.576 72.1409 17.4V1.8C72.1409 1.624 72.1969 1.48 72.3089 1.368C72.4209 1.256 72.5649 1.2 72.7409 1.2H75.2849C75.5569 1.2 75.7489 1.264 75.8609 1.392C75.9889 1.504 76.0689 1.592 76.1009 1.656L81.9569 10.896V1.8C81.9569 1.624 82.0129 1.48 82.1249 1.368C82.2369 1.256 82.3809 1.2 82.5569 1.2H85.4369C85.6129 1.2 85.7569 1.256 85.8689 1.368C85.9809 1.48 86.0369 1.624 86.0369 1.8V17.4C86.0369 17.56 85.9809 17.704 85.8689 17.832C85.7569 17.944 85.6129 18 85.4369 18H82.8689C82.6129 18 82.4209 17.936 82.2929 17.808C82.1809 17.68 82.1089 17.592 82.0769 17.544L76.2209 8.664V17.4C76.2209 17.576 76.1649 17.72 76.0529 17.832C75.9409 17.944 75.7969 18 75.6209 18H72.7409ZM96.3269 18.24C94.8069 18.24 93.4949 17.992 92.3909 17.496C91.3029 16.984 90.4549 16.248 89.8469 15.288C89.2549 14.312 88.9269 13.128 88.8629 11.736C88.8469 11.048 88.8389 10.32 88.8389 9.552C88.8389 8.768 88.8469 8.024 88.8629 7.32C88.9269 5.96 89.2629 4.808 89.8709 3.864C90.4789 2.92 91.3349 2.2 92.4389 1.704C93.5429 1.208 94.8389 0.959999 96.3269 0.959999C97.5269 0.959999 98.5909 1.112 99.5189 1.416C100.447 1.704 101.223 2.096 101.847 2.592C102.487 3.088 102.967 3.632 103.287 4.224C103.623 4.816 103.799 5.4 103.815 5.976C103.831 6.12 103.783 6.24 103.671 6.336C103.575 6.432 103.455 6.48 103.311 6.48H99.8069C99.6309 6.48 99.4949 6.456 99.3989 6.408C99.3189 6.344 99.2469 6.256 99.1829 6.144C99.0709 5.904 98.9029 5.656 98.6789 5.4C98.4709 5.128 98.1749 4.896 97.7909 4.704C97.4229 4.512 96.9349 4.416 96.3269 4.416C95.4149 4.416 94.6949 4.656 94.1669 5.136C93.6549 5.616 93.3749 6.384 93.3269 7.44C93.2789 8.816 93.2789 10.208 93.3269 11.616C93.3749 12.736 93.6709 13.544 94.2149 14.04C94.7589 14.536 95.4789 14.784 96.3749 14.784C96.9829 14.784 97.5189 14.68 97.9829 14.472C98.4629 14.264 98.8389 13.944 99.1109 13.512C99.3829 13.064 99.5189 12.496 99.5189 11.808V11.352H97.2629C97.0869 11.352 96.9349 11.296 96.8069 11.184C96.6949 11.056 96.6389 10.904 96.6389 10.728V8.952C96.6389 8.776 96.6949 8.632 96.8069 8.52C96.9349 8.392 97.0869 8.328 97.2629 8.328H103.311C103.487 8.328 103.631 8.392 103.743 8.52C103.855 8.632 103.911 8.776 103.911 8.952V11.688C103.911 13.064 103.599 14.24 102.975 15.216C102.351 16.192 101.463 16.944 100.311 17.472C99.1749 17.984 97.8469 18.24 96.3269 18.24ZM105.329 18C105.201 18 105.081 17.952 104.969 17.856C104.873 17.744 104.825 17.624 104.825 17.496C104.825 17.416 104.833 17.344 104.849 17.28L110.489 1.872C110.537 1.696 110.633 1.544 110.777 1.416C110.937 1.272 111.153 1.2 111.425 1.2H114.977C115.249 1.2 115.457 1.272 115.601 1.416C115.761 1.544 115.865 1.696 115.913 1.872L121.529 17.28C121.561 17.344 121.577 17.416 121.577 17.496C121.577 17.624 121.521 17.744 121.409 17.856C121.313 17.952 121.193 18 121.049 18H118.097C117.857 18 117.673 17.944 117.545 17.832C117.433 17.704 117.361 17.592 117.329 17.496L116.393 15.048H109.985L109.073 17.496C109.041 17.592 108.969 17.704 108.857 17.832C108.745 17.944 108.553 18 108.281 18H105.329ZM110.969 11.592H115.433L113.177 5.256L110.969 11.592ZM124.069 18C123.893 18 123.749 17.944 123.637 17.832C123.525 17.72 123.469 17.576 123.469 17.4V1.8C123.469 1.624 123.525 1.48 123.637 1.368C123.749 1.256 123.893 1.2 124.069 1.2H126.613C126.885 1.2 127.077 1.264 127.189 1.392C127.317 1.504 127.397 1.592 127.429 1.656L133.285 10.896V1.8C133.285 1.624 133.341 1.48 133.453 1.368C133.565 1.256 133.709 1.2 133.885 1.2H136.765C136.941 1.2 137.085 1.256 137.197 1.368C137.309 1.48 137.365 1.624 137.365 1.8V17.4C137.365 17.56 137.309 17.704 137.197 17.832C137.085 17.944 136.941 18 136.765 18H134.197C133.941 18 133.749 17.936 133.621 17.808C133.509 17.68 133.437 17.592 133.405 17.544L127.549 8.664V17.4C127.549 17.576 127.493 17.72 127.381 17.832C127.269 17.944 127.125 18 126.949 18H124.069ZM141.319 18C141.143 18 140.999 17.944 140.887 17.832C140.775 17.72 140.719 17.576 140.719 17.4V1.8C140.719 1.624 140.775 1.48 140.887 1.368C140.999 1.256 141.143 1.2 141.319 1.2H144.487C144.647 1.2 144.783 1.256 144.895 1.368C145.023 1.48 145.087 1.624 145.087 1.8V14.376H152.335C152.511 14.376 152.655 14.44 152.767 14.568C152.895 14.68 152.959 14.824 152.959 15V17.4C152.959 17.576 152.895 17.72 152.767 17.832C152.655 17.944 152.511 18 152.335 18H141.319ZM155.639 18C155.463 18 155.319 17.944 155.207 17.832C155.095 17.72 155.039 17.576 155.039 17.4V1.8C155.039 1.624 155.095 1.48 155.207 1.368C155.319 1.256 155.463 1.2 155.639 1.2H158.855C159.031 1.2 159.175 1.256 159.287 1.368C159.399 1.48 159.455 1.624 159.455 1.8V17.4C159.455 17.576 159.399 17.72 159.287 17.832C159.175 17.944 159.031 18 158.855 18H155.639ZM163.421 18C163.245 18 163.101 17.944 162.989 17.832C162.877 17.72 162.821 17.576 162.821 17.4V1.8C162.821 1.624 162.877 1.48 162.989 1.368C163.101 1.256 163.245 1.2 163.421 1.2H166.445C166.621 1.2 166.765 1.256 166.877 1.368C166.989 1.48 167.045 1.624 167.045 1.8V7.128L171.485 1.656C171.549 1.56 171.653 1.464 171.797 1.368C171.957 1.256 172.165 1.2 172.421 1.2H175.877C176.021 1.2 176.141 1.256 176.237 1.368C176.333 1.464 176.381 1.576 176.381 1.704C176.381 1.816 176.349 1.912 176.285 1.992L170.549 9.24L176.741 17.208C176.805 17.272 176.837 17.368 176.837 17.496C176.837 17.624 176.781 17.744 176.669 17.856C176.573 17.952 176.461 18 176.333 18H172.757C172.469 18 172.245 17.936 172.085 17.808C171.941 17.68 171.845 17.584 171.797 17.52L167.045 11.592V17.4C167.045 17.576 166.989 17.72 166.877 17.832C166.765 17.944 166.621 18 166.445 18H163.421ZM179.311 18C179.135 18 178.991 17.944 178.879 17.832C178.767 17.72 178.711 17.576 178.711 17.4V1.8C178.711 1.624 178.767 1.48 178.879 1.368C178.991 1.256 179.135 1.2 179.311 1.2H182.479C182.639 1.2 182.775 1.256 182.887 1.368C183.015 1.48 183.079 1.624 183.079 1.8V14.376H190.327C190.503 14.376 190.647 14.44 190.759 14.568C190.887 14.68 190.951 14.824 190.951 15V17.4C190.951 17.576 190.887 17.72 190.759 17.832C190.647 17.944 190.503 18 190.327 18H179.311ZM192.072 18C191.944 18 191.824 17.952 191.712 17.856C191.616 17.744 191.568 17.624 191.568 17.496C191.568 17.416 191.576 17.344 191.592 17.28L197.232 1.872C197.28 1.696 197.376 1.544 197.52 1.416C197.68 1.272 197.896 1.2 198.168 1.2H201.72C201.992 1.2 202.2 1.272 202.344 1.416C202.504 1.544 202.608 1.696 202.656 1.872L208.272 17.28C208.304 17.344 208.32 17.416 208.32 17.496C208.32 17.624 208.264 17.744 208.152 17.856C208.056 17.952 207.936 18 207.792 18H204.84C204.6 18 204.416 17.944 204.288 17.832C204.176 17.704 204.104 17.592 204.072 17.496L203.136 15.048H196.728L195.816 17.496C195.784 17.592 195.712 17.704 195.6 17.832C195.488 17.944 195.296 18 195.024 18H192.072ZM197.712 11.592H202.176L199.92 5.256L197.712 11.592ZM210.811 18C210.635 18 210.491 17.944 210.379 17.832C210.267 17.72 210.211 17.576 210.211 17.4V1.8C210.211 1.624 210.267 1.48 210.379 1.368C210.491 1.256 210.635 1.2 210.811 1.2H217.339C219.403 1.2 221.027 1.68 222.211 2.64C223.411 3.584 224.011 4.928 224.011 6.672C224.011 7.808 223.731 8.768 223.171 9.552C222.627 10.336 221.907 10.928 221.011 11.328L224.323 17.232C224.371 17.328 224.395 17.416 224.395 17.496C224.395 17.624 224.339 17.744 224.227 17.856C224.131 17.952 224.011 18 223.867 18H220.699C220.395 18 220.171 17.928 220.027 17.784C219.883 17.624 219.779 17.48 219.715 17.352L216.979 12.072H214.507V17.4C214.507 17.576 214.451 17.72 214.339 17.832C214.227 17.944 214.083 18 213.907 18H210.811ZM214.507 8.688H217.291C218.043 8.688 218.603 8.504 218.971 8.136C219.355 7.768 219.547 7.264 219.547 6.624C219.547 6 219.363 5.496 218.995 5.112C218.643 4.728 218.075 4.536 217.291 4.536H214.507V8.688ZM231.842 18C231.666 18 231.514 17.944 231.386 17.832C231.274 17.72 231.218 17.576 231.218 17.4V15.696C231.218 15.584 231.25 15.416 231.314 15.192C231.378 14.952 231.546 14.728 231.818 14.52L234.314 12.072C235.594 11.096 236.642 10.272 237.458 9.6C238.29 8.912 238.906 8.304 239.306 7.776C239.706 7.248 239.906 6.752 239.906 6.288C239.906 5.744 239.762 5.296 239.474 4.944C239.202 4.576 238.722 4.392 238.034 4.392C237.57 4.392 237.178 4.496 236.858 4.704C236.554 4.896 236.322 5.152 236.162 5.472C236.002 5.792 235.89 6.12 235.826 6.456C235.762 6.664 235.65 6.808 235.49 6.888C235.346 6.968 235.186 7.008 235.01 7.008H232.01C231.866 7.008 231.746 6.96 231.65 6.864C231.554 6.768 231.506 6.648 231.506 6.504C231.522 5.736 231.682 5.016 231.986 4.344C232.306 3.672 232.746 3.08 233.306 2.568C233.882 2.04 234.562 1.632 235.346 1.344C236.146 1.056 237.042 0.912 238.034 0.912C239.394 0.912 240.546 1.128 241.49 1.56C242.45 1.992 243.178 2.6 243.674 3.384C244.17 4.152 244.418 5.056 244.418 6.096C244.418 6.88 244.242 7.616 243.89 8.304C243.554 8.976 243.066 9.624 242.426 10.248C241.802 10.856 241.058 11.488 240.194 12.144L237.986 14.376H244.154C244.33 14.376 244.474 14.432 244.586 14.544C244.714 14.656 244.778 14.8 244.778 14.976V17.4C244.778 17.576 244.714 17.72 244.586 17.832C244.474 17.944 244.33 18 244.154 18H231.842ZM255.086 18C254.926 18 254.782 17.944 254.654 17.832C254.542 17.72 254.486 17.576 254.486 17.4V14.688H247.022C246.862 14.688 246.718 14.632 246.59 14.52C246.478 14.408 246.422 14.264 246.422 14.088V11.808C246.422 11.664 246.446 11.536 246.494 11.424C246.558 11.296 246.622 11.176 246.686 11.064L253.67 1.608C253.878 1.336 254.174 1.2 254.558 1.2H258.038C258.214 1.2 258.358 1.256 258.47 1.368C258.598 1.48 258.662 1.624 258.662 1.8V11.112H260.774C260.966 11.112 261.118 11.176 261.23 11.304C261.342 11.416 261.398 11.552 261.398 11.712V14.088C261.398 14.264 261.334 14.408 261.206 14.52C261.094 14.632 260.958 14.688 260.798 14.688H258.662V17.4C258.662 17.576 258.598 17.72 258.47 17.832C258.358 17.944 258.214 18 258.038 18H255.086ZM250.55 11.28H254.582V5.616L250.55 11.28Z" fill="white"/>
</svg>
